<svg width="3025" height="461" viewBox="0 0 3025 461" fill="none" xmlns="http://www.w3.org/2000/svg">
<mask id="path-1-inside-1_125_14" fill="white">
<path d="M435.831 110.73C403.164 110.73 379.328 96.9784 364.992 69.8506C353.952 48.9728 352.798 27.5885 352.791 27.3845C352.661 24.5814 350.836 22.1369 348.18 21.2225C307.29 7.13982 264.616 0 221.345 0C178.073 0 135.396 7.13982 94.4988 21.2225C91.8433 22.1369 90.0144 24.5814 89.8878 27.3845C89.8773 27.5956 88.8116 48.5824 77.8943 69.4672C63.583 96.8483 39.677 110.73 6.84789 110.73C3.06696 110.73 0 113.797 0 117.578C0 119.872 0.30951 174.567 27.272 244.481C43.0992 285.522 64.8879 323.23 92.0298 356.558C125.953 398.208 168.355 433.067 218.067 460.166C219.087 460.722 220.216 461 221.345 461C222.474 461 223.599 460.722 224.623 460.166C245.898 448.563 266.065 435.399 284.559 421.038C287.545 418.717 288.086 414.419 285.768 411.433C283.451 408.447 279.149 407.905 276.163 410.223C259.196 423.398 240.77 435.536 221.345 446.337C174.725 420.423 134.883 387.414 102.873 348.191C76.6528 316.058 55.585 279.684 40.2503 240.077C19.383 186.184 14.9092 140.735 13.9525 124.222C56.9884 121.746 79.0269 96.8588 90.0285 75.8087C99.1942 58.2792 102.191 40.8974 103.144 32.7552C141.323 20.104 181.07 13.6923 221.345 13.6923C261.623 13.6923 301.364 20.104 339.535 32.7552C340.488 40.8974 343.488 58.2792 352.651 75.8087C363.656 96.8588 385.698 121.743 428.73 124.222C427.953 137.728 424.833 170.578 412.33 211.462C402.71 242.905 389.5 272.892 373.057 300.59C352.538 335.156 326.898 366.251 296.84 393.006C294.016 395.521 293.763 399.851 296.278 402.675C298.792 405.499 303.122 405.749 305.946 403.234C337.136 375.466 363.737 343.186 385.005 307.286C402.01 278.583 415.66 247.523 425.575 214.965C442.482 159.45 442.679 119.26 442.679 117.578C442.679 113.797 439.612 110.73 435.831 110.73Z"/>
<path d="M321.168 334.934C345.816 304.982 365.702 271.045 380.284 234.055C393.769 199.851 400.121 169.203 403.079 149.514C403.585 146.151 401.545 142.926 398.288 141.945C369.754 133.321 347.015 114.177 332.528 86.5812C327.362 76.7332 323.271 65.8582 320.373 54.2516C319.775 51.8599 317.939 49.9712 315.558 49.3135C284.92 40.8196 253.22 36.5146 221.341 36.5146C189.465 36.5146 157.768 40.8196 127.13 49.31C124.753 49.9677 122.913 51.8564 122.319 54.2481C119.445 65.7527 115.386 76.5644 110.255 86.3808C95.7607 114.106 72.9696 133.324 44.3399 141.959C41.076 142.944 39.0361 146.179 39.5496 149.552C42.4794 168.686 48.6379 198.409 61.3383 231.344C75.7797 268.791 95.6305 303.16 120.339 333.499C147.104 366.364 179.884 394.743 217.774 417.855C218.868 418.523 220.103 418.857 221.341 418.857C222.575 418.857 223.81 418.523 224.903 417.855C262.241 395.081 294.631 367.183 321.168 334.934ZM221.341 403.965C186.289 382.075 155.897 355.474 130.957 324.854C107.16 295.634 88.037 262.516 74.1161 226.416C63.0582 197.744 57.1388 171.598 54.0121 153.196C83.5667 142.733 107.125 121.929 122.389 92.7257C127.433 83.0782 131.523 72.583 134.576 61.4793C162.843 53.9984 192.015 50.2069 221.341 50.2069C250.674 50.2069 279.845 54.0019 308.116 61.4828C311.193 72.6885 315.319 83.254 320.408 92.9473C335.669 122.017 359.174 142.74 388.634 153.182C385.458 172.125 379.317 199.169 367.545 229.036C353.49 264.686 334.329 297.389 310.595 326.233C285.877 356.266 255.865 382.402 221.341 403.965Z"/>
<path d="M284.829 130.79C283.437 127.92 280.243 126.397 277.137 127.111C274.028 127.825 271.826 130.593 271.826 133.783C271.826 156.715 266.269 174.705 260.74 186.927C257.596 162.36 248.142 138.327 232.853 116.38C217.715 94.6545 202.314 82.64 201.666 82.137C199.528 80.4839 196.616 80.2448 194.235 81.5285C191.854 82.8123 190.45 85.3763 190.654 88.0704C192.67 114.727 177.145 138.373 162.13 161.241C153.84 173.868 145.265 186.923 139.916 200.232C138.505 203.742 140.208 207.731 143.714 209.141C147.221 210.548 151.209 208.849 152.62 205.339C157.463 193.297 165.288 181.377 173.575 168.754C187.032 148.259 200.864 127.192 203.914 102.811C220.374 119.732 249.974 157.615 248.131 209.739C248.029 212.637 249.767 215.289 252.468 216.351C255.169 217.414 258.247 216.657 260.146 214.466C260.962 213.527 276.128 195.667 282.614 163.45C292.384 194.802 302.004 247.292 274.025 284.764C256.879 307.724 216.252 316.798 185.312 304.583C168.598 297.984 141.379 279.537 146.866 230.142C147.284 226.386 144.576 222.999 140.816 222.584C137.056 222.169 133.673 224.874 133.258 228.63C128.513 271.321 145.656 303.647 180.286 317.318C191.354 321.69 203.333 323.762 215.253 323.758C242.996 323.758 270.381 312.531 284.998 292.958C304.634 266.654 310.775 230.146 302.753 187.381C296.798 155.631 285.315 131.789 284.829 130.79Z"/>
</mask>
<path d="M435.831 110.73C403.164 110.73 379.328 96.9784 364.992 69.8506C353.952 48.9728 352.798 27.5885 352.791 27.3845C352.661 24.5814 350.836 22.1369 348.18 21.2225C307.29 7.13982 264.616 0 221.345 0C178.073 0 135.396 7.13982 94.4988 21.2225C91.8433 22.1369 90.0144 24.5814 89.8878 27.3845C89.8773 27.5956 88.8116 48.5824 77.8943 69.4672C63.583 96.8483 39.677 110.73 6.84789 110.73C3.06696 110.73 0 113.797 0 117.578C0 119.872 0.30951 174.567 27.272 244.481C43.0992 285.522 64.8879 323.23 92.0298 356.558C125.953 398.208 168.355 433.067 218.067 460.166C219.087 460.722 220.216 461 221.345 461C222.474 461 223.599 460.722 224.623 460.166C245.898 448.563 266.065 435.399 284.559 421.038C287.545 418.717 288.086 414.419 285.768 411.433C283.451 408.447 279.149 407.905 276.163 410.223C259.196 423.398 240.77 435.536 221.345 446.337C174.725 420.423 134.883 387.414 102.873 348.191C76.6528 316.058 55.585 279.684 40.2503 240.077C19.383 186.184 14.9092 140.735 13.9525 124.222C56.9884 121.746 79.0269 96.8588 90.0285 75.8087C99.1942 58.2792 102.191 40.8974 103.144 32.7552C141.323 20.104 181.07 13.6923 221.345 13.6923C261.623 13.6923 301.364 20.104 339.535 32.7552C340.488 40.8974 343.488 58.2792 352.651 75.8087C363.656 96.8588 385.698 121.743 428.73 124.222C427.953 137.728 424.833 170.578 412.33 211.462C402.71 242.905 389.5 272.892 373.057 300.59C352.538 335.156 326.898 366.251 296.84 393.006C294.016 395.521 293.763 399.851 296.278 402.675C298.792 405.499 303.122 405.749 305.946 403.234C337.136 375.466 363.737 343.186 385.005 307.286C402.01 278.583 415.66 247.523 425.575 214.965C442.482 159.45 442.679 119.26 442.679 117.578C442.679 113.797 439.612 110.73 435.831 110.73Z" fill="black"/>
<path d="M321.168 334.934C345.816 304.982 365.702 271.045 380.284 234.055C393.769 199.851 400.121 169.203 403.079 149.514C403.585 146.151 401.545 142.926 398.288 141.945C369.754 133.321 347.015 114.177 332.528 86.5812C327.362 76.7332 323.271 65.8582 320.373 54.2516C319.775 51.8599 317.939 49.9712 315.558 49.3135C284.92 40.8196 253.22 36.5146 221.341 36.5146C189.465 36.5146 157.768 40.8196 127.13 49.31C124.753 49.9677 122.913 51.8564 122.319 54.2481C119.445 65.7527 115.386 76.5644 110.255 86.3808C95.7607 114.106 72.9696 133.324 44.3399 141.959C41.076 142.944 39.0361 146.179 39.5496 149.552C42.4794 168.686 48.6379 198.409 61.3383 231.344C75.7797 268.791 95.6305 303.16 120.339 333.499C147.104 366.364 179.884 394.743 217.774 417.855C218.868 418.523 220.103 418.857 221.341 418.857C222.575 418.857 223.81 418.523 224.903 417.855C262.241 395.081 294.631 367.183 321.168 334.934ZM221.341 403.965C186.289 382.075 155.897 355.474 130.957 324.854C107.16 295.634 88.037 262.516 74.1161 226.416C63.0582 197.744 57.1388 171.598 54.0121 153.196C83.5667 142.733 107.125 121.929 122.389 92.7257C127.433 83.0782 131.523 72.583 134.576 61.4793C162.843 53.9984 192.015 50.2069 221.341 50.2069C250.674 50.2069 279.845 54.0019 308.116 61.4828C311.193 72.6885 315.319 83.254 320.408 92.9473C335.669 122.017 359.174 142.74 388.634 153.182C385.458 172.125 379.317 199.169 367.545 229.036C353.49 264.686 334.329 297.389 310.595 326.233C285.877 356.266 255.865 382.402 221.341 403.965Z" fill="black"/>
<path d="M284.829 130.79C283.437 127.92 280.243 126.397 277.137 127.111C274.028 127.825 271.826 130.593 271.826 133.783C271.826 156.715 266.269 174.705 260.74 186.927C257.596 162.36 248.142 138.327 232.853 116.38C217.715 94.6545 202.314 82.64 201.666 82.137C199.528 80.4839 196.616 80.2448 194.235 81.5285C191.854 82.8123 190.45 85.3763 190.654 88.0704C192.67 114.727 177.145 138.373 162.13 161.241C153.84 173.868 145.265 186.923 139.916 200.232C138.505 203.742 140.208 207.731 143.714 209.141C147.221 210.548 151.209 208.849 152.62 205.339C157.463 193.297 165.288 181.377 173.575 168.754C187.032 148.259 200.864 127.192 203.914 102.811C220.374 119.732 249.974 157.615 248.131 209.739C248.029 212.637 249.767 215.289 252.468 216.351C255.169 217.414 258.247 216.657 260.146 214.466C260.962 213.527 276.128 195.667 282.614 163.45C292.384 194.802 302.004 247.292 274.025 284.764C256.879 307.724 216.252 316.798 185.312 304.583C168.598 297.984 141.379 279.537 146.866 230.142C147.284 226.386 144.576 222.999 140.816 222.584C137.056 222.169 133.673 224.874 133.258 228.63C128.513 271.321 145.656 303.647 180.286 317.318C191.354 321.69 203.333 323.762 215.253 323.758C242.996 323.758 270.381 312.531 284.998 292.958C304.634 266.654 310.775 230.146 302.753 187.381C296.798 155.631 285.315 131.789 284.829 130.79Z" fill="black"/>
<path d="M364.992 69.8506L378.4 62.7653L378.398 62.7617L364.992 69.8506ZM352.791 27.3845L367.947 26.8619L367.944 26.7716L367.939 26.6813L352.791 27.3845ZM348.18 21.2225L343.242 35.5605L343.243 35.5606L348.18 21.2225ZM94.4988 21.2225L89.5616 6.88426L89.5612 6.88439L94.4988 21.2225ZM89.8878 27.3845L105.033 28.1418L105.035 28.1053L105.037 28.0688L89.8878 27.3845ZM77.8943 69.4672L64.4552 62.4422L64.4549 62.4428L77.8943 69.4672ZM27.272 244.481L41.4208 239.024L41.4208 239.024L27.272 244.481ZM92.0298 356.558L80.2712 366.134L80.2718 366.135L92.0298 356.558ZM218.067 460.166L210.809 473.481L210.812 473.483L218.067 460.166ZM224.623 460.166L231.859 473.493L231.871 473.486L231.884 473.48L224.623 460.166ZM284.559 421.038L293.859 433.015L293.866 433.01L284.559 421.038ZM285.768 411.433L273.789 420.731L285.768 411.433ZM276.163 410.223L266.865 398.244L266.862 398.246L276.163 410.223ZM221.345 446.337L213.977 459.591L221.346 463.687L228.714 459.59L221.345 446.337ZM102.873 348.191L91.1239 357.778L91.1244 357.779L102.873 348.191ZM40.2503 240.077L54.3918 234.602L54.3917 234.602L40.2503 240.077ZM13.9525 124.222L13.0815 109.083L-2.06397 109.954L-1.18655 125.099L13.9525 124.222ZM90.0285 75.8087L76.5902 68.7821L76.5889 68.7846L90.0285 75.8087ZM103.144 32.7552L98.374 18.3605L89.2054 21.3987L88.0823 30.9921L103.144 32.7552ZM339.535 32.7552L354.597 30.9921L353.474 21.3993L344.306 18.3607L339.535 32.7552ZM352.651 75.8087L339.211 82.8331L339.212 82.8345L352.651 75.8087ZM428.73 124.222L443.87 125.094L444.741 109.955L429.602 109.083L428.73 124.222ZM412.33 211.462L426.831 215.898L426.831 215.897L412.33 211.462ZM373.057 300.59L360.017 292.849L360.017 292.849L373.057 300.59ZM296.84 393.006L286.758 381.679L286.756 381.681L296.84 393.006ZM296.278 402.675L307.603 392.591L296.278 402.675ZM305.946 403.234L295.863 391.908L295.862 391.909L305.946 403.234ZM385.005 307.286L371.958 299.557L371.958 299.557L385.005 307.286ZM425.575 214.965L411.069 210.547L411.068 210.547L425.575 214.965ZM321.168 334.934L309.458 325.298L309.458 325.299L321.168 334.934ZM380.284 234.055L366.176 228.494L366.176 228.494L380.284 234.055ZM403.079 149.514L388.083 147.255L388.083 147.261L403.079 149.514ZM398.288 141.945L393.901 156.461L393.914 156.464L398.288 141.945ZM332.528 86.5812L319.1 93.6264L319.102 93.63L332.528 86.5812ZM320.373 54.2516L335.086 50.5779L335.085 50.5737L320.373 54.2516ZM315.558 49.3135L311.507 63.9268L311.514 63.9287L311.52 63.9306L315.558 49.3135ZM127.13 49.31L131.173 63.9256L131.18 63.9237L127.13 49.31ZM122.319 54.2481L137.031 57.9228L137.033 57.9142L137.035 57.9056L122.319 54.2481ZM110.255 86.3808L123.694 93.4062L123.694 93.406L110.255 86.3808ZM44.3399 141.959L39.9612 127.44L39.9595 127.441L44.3399 141.959ZM39.5496 149.552L24.5578 151.835L24.5598 151.848L39.5496 149.552ZM61.3383 231.344L47.1894 236.8L47.1895 236.8L61.3383 231.344ZM120.339 333.499L108.58 343.075L108.58 343.076L120.339 333.499ZM217.774 417.855L225.68 404.914L225.671 404.908L217.774 417.855ZM224.903 417.855L217.007 404.908L216.998 404.914L224.903 417.855ZM221.341 403.965L213.308 416.828L221.341 421.845L229.374 416.827L221.341 403.965ZM130.957 324.854L119.198 334.43L119.199 334.431L130.957 324.854ZM74.1161 226.416L88.2651 220.96L88.2648 220.959L74.1161 226.416ZM54.0121 153.196L48.9511 138.901L36.9248 143.159L39.0619 155.736L54.0121 153.196ZM122.389 92.7257L108.95 85.7001L108.95 85.701L122.389 92.7257ZM134.576 61.4793L130.696 46.8196L122.266 49.0506L119.954 57.4591L134.576 61.4793ZM308.116 61.4828L322.739 57.4668L320.428 49.0546L311.995 46.823L308.116 61.4828ZM320.408 92.9473L333.835 85.8985L333.835 85.8979L320.408 92.9473ZM388.634 153.182L403.59 155.689L405.694 143.14L393.7 138.889L388.634 153.182ZM367.545 229.036L381.653 234.598L381.653 234.597L367.545 229.036ZM310.595 326.233L322.304 335.87L322.305 335.868L310.595 326.233ZM284.829 130.79L271.187 137.411L271.19 137.417L284.829 130.79ZM277.137 127.111L280.531 141.891L280.535 141.89L277.137 127.111ZM260.74 186.927L245.699 188.852L252.494 241.948L274.557 193.177L260.74 186.927ZM232.853 116.38L245.296 107.712L245.295 107.711L232.853 116.38ZM201.666 82.137L210.972 70.1634L210.956 70.1513L210.941 70.1393L201.666 82.137ZM194.235 81.5285L187.038 68.1805H187.038L194.235 81.5285ZM190.654 88.0704L205.775 86.9272L205.775 86.9255L190.654 88.0704ZM162.13 161.241L149.454 152.918L149.454 152.919L162.13 161.241ZM139.916 200.232L125.845 194.577L125.845 194.579L139.916 200.232ZM143.714 209.141L138.056 223.21L138.068 223.215L143.714 209.141ZM152.62 205.339L138.55 199.681L138.549 199.685L152.62 205.339ZM173.575 168.754L160.899 160.431L160.898 160.432L173.575 168.754ZM203.914 102.811L214.784 92.2369L192.782 69.6198L188.867 100.929L203.914 102.811ZM248.131 209.739L232.976 209.203L232.976 209.206L248.131 209.739ZM252.468 216.351L258.018 202.239L252.468 216.351ZM260.146 214.466L248.699 204.52L248.693 204.527L248.687 204.534L260.146 214.466ZM282.614 163.45L297.091 158.938L267.747 160.457L282.614 163.45ZM274.025 284.764L286.175 293.837L286.176 293.836L274.025 284.764ZM185.312 304.583L190.88 290.478L190.88 290.478L185.312 304.583ZM146.866 230.142L131.794 228.463L131.794 228.468L146.866 230.142ZM140.816 222.584L142.48 207.511L140.816 222.584ZM133.258 228.63L148.329 230.305L148.331 230.295L133.258 228.63ZM180.286 317.318L185.856 303.214L185.854 303.213L180.286 317.318ZM215.253 323.758V308.594H215.249L215.253 323.758ZM284.998 292.958L297.148 302.032L297.15 302.03L284.998 292.958ZM302.753 187.381L287.848 190.176L287.848 190.177L302.753 187.381ZM435.831 95.566C421.647 95.566 410.241 92.5941 401.117 87.3289C392.042 82.0924 384.397 74.1132 378.4 62.7653L351.585 76.9359C359.924 92.7158 371.364 105.176 385.958 113.598C400.503 121.991 417.348 125.895 435.831 125.895V95.566ZM378.398 62.7617C368.894 44.7894 367.918 26.0303 367.947 26.8619L337.636 27.9072C337.679 29.1467 339.01 53.1562 351.587 76.9396L378.398 62.7617ZM367.939 26.6813C367.522 17.686 361.664 9.82741 353.118 6.88439L343.243 35.5606C340.008 34.4465 337.8 31.4767 337.643 28.0878L367.939 26.6813ZM353.118 6.88452C310.638 -7.74571 266.296 -15.1645 221.345 -15.1645V15.1645C262.937 15.1645 303.942 22.0253 343.242 35.5605L353.118 6.88452ZM221.345 -15.1645C176.394 -15.1645 132.048 -7.74572 89.5616 6.88426L99.436 35.5607C138.744 22.0253 179.753 15.1645 221.345 15.1645V-15.1645ZM89.5612 6.88439C81.0291 9.8226 75.1464 17.676 74.7388 26.7003L105.037 28.0688C104.882 31.4867 102.658 34.4513 99.4364 35.5606L89.5612 6.88439ZM74.7423 26.6272C74.7685 26.1029 73.8499 44.4699 64.4552 62.4422L91.3334 76.4923C103.773 52.6949 104.986 29.0883 105.033 28.1418L74.7423 26.6272ZM64.4549 62.4428C58.4603 73.9119 50.7985 81.9689 41.6995 87.2534C32.5517 92.5661 21.1024 95.566 6.84789 95.566V125.895C25.4225 125.895 42.3408 121.954 56.9311 113.48C71.5702 104.978 83.0171 92.4036 91.3338 76.4917L64.4549 62.4428ZM6.84789 95.566C-5.30816 95.566 -15.1645 105.422 -15.1645 117.578H15.1645C15.1645 122.173 11.4421 125.895 6.84789 125.895V95.566ZM-15.1645 117.578C-15.1645 120.991 -14.735 177.701 13.1232 249.937L41.4208 239.024C15.354 171.433 15.1645 118.752 15.1645 117.578H-15.1645ZM13.1231 249.937C29.5117 292.434 52.0972 331.538 80.2712 366.134L103.788 346.982C77.6786 314.921 56.6866 278.61 41.4208 239.024L13.1231 249.937ZM80.2718 366.135C115.504 409.392 159.463 445.491 210.809 473.481L225.325 446.852C177.248 420.643 136.401 387.024 103.788 346.982L80.2718 366.135ZM210.812 473.483C214.101 475.275 217.731 476.164 221.345 476.164V445.836C222.7 445.836 224.072 446.169 225.322 446.85L210.812 473.483ZM221.345 476.164C224.97 476.164 228.587 475.27 231.859 473.493L217.387 446.84C218.612 446.175 219.977 445.836 221.345 445.836V476.164ZM231.884 473.48C253.848 461.501 274.701 447.893 293.859 433.015L275.258 409.061C257.43 422.904 237.948 435.626 217.362 446.853L231.884 473.48ZM293.866 433.01C303.453 425.558 305.204 411.741 297.748 402.134L273.789 420.731C270.968 417.097 271.637 411.876 275.251 409.066L293.866 433.01ZM297.748 402.134C290.294 392.531 276.466 390.791 266.865 398.244L285.461 422.202C281.833 425.019 276.608 424.362 273.789 420.731L297.748 402.134ZM266.862 398.246C250.527 410.93 232.749 422.645 213.975 433.084L228.714 459.59C248.791 448.427 267.865 435.866 285.464 422.2L266.862 398.246ZM228.712 433.083C183.681 408.051 145.353 376.259 114.622 338.603L91.1244 357.779C124.413 398.569 165.769 432.794 213.977 459.591L228.712 433.083ZM114.622 338.604C89.4354 307.737 69.1647 272.757 54.3918 234.602L26.1087 245.552C42.0054 286.61 63.8702 324.379 91.1239 357.778L114.622 338.604ZM54.3917 234.602C34.2651 182.621 29.9892 138.838 29.0916 123.345L-1.18655 125.099C-0.170759 142.633 4.50089 189.746 26.1088 245.553L54.3917 234.602ZM14.8236 139.362C64.673 136.494 90.7749 107.12 103.468 82.8327L76.5889 68.7846C67.2788 86.5981 49.3037 106.999 13.0815 109.083L14.8236 139.362ZM103.467 82.8352C113.82 63.0352 117.139 43.6286 118.206 34.5184L88.0823 30.9921C87.2425 38.1662 84.5687 53.5232 76.5902 68.7821L103.467 82.8352ZM107.914 47.15C144.552 35.0092 182.689 28.8567 221.345 28.8567V-1.4722C179.451 -1.4722 138.093 5.1989 98.374 18.3605L107.914 47.15ZM221.345 28.8567C260.004 28.8567 298.133 35.0091 334.764 47.1497L344.306 18.3607C304.594 5.19893 263.243 -1.4722 221.345 -1.4722V28.8567ZM324.474 34.5184C325.54 43.6311 328.864 63.0356 339.211 82.8331L366.09 68.7842C358.113 53.5228 355.436 38.1638 354.597 30.9921L324.474 34.5184ZM339.212 82.8345C351.909 107.121 378.014 136.49 427.858 139.362L429.602 109.083C393.382 106.996 375.403 86.5967 366.089 68.7828L339.212 82.8345ZM413.591 123.351C412.863 135.995 409.888 167.592 397.828 207.027L426.831 215.897C439.778 173.564 443.043 139.461 443.87 125.094L413.591 123.351ZM397.829 207.025C388.555 237.338 375.829 266.213 360.017 292.849L386.097 308.331C403.17 279.571 416.865 248.472 426.831 215.898L397.829 207.025ZM360.017 292.849C340.294 326.075 315.651 355.96 286.758 381.679L306.923 404.334C338.145 376.542 364.782 344.238 386.097 308.33L360.017 292.849ZM286.756 381.681C277.684 389.759 276.862 403.673 284.952 412.759L307.603 392.591C310.664 396.028 310.349 401.283 306.925 404.332L286.756 381.681ZM284.952 412.759C293.04 421.842 306.955 422.641 316.031 414.56L295.862 391.909C299.289 388.858 304.545 389.156 307.603 392.591L284.952 412.759ZM316.03 414.561C348.386 385.755 375.986 352.261 398.052 315.016L371.958 299.557C351.487 334.111 325.887 365.178 295.863 391.908L316.03 414.561ZM398.052 315.016C415.686 285.25 429.821 253.076 440.082 219.382L411.068 210.547C401.499 241.97 388.334 271.916 371.958 299.557L398.052 315.016ZM440.082 219.383C457.55 162.026 457.844 120.257 457.844 117.578H427.515C427.515 118.262 427.414 156.874 411.069 210.547L440.082 219.383ZM457.844 117.578C457.844 105.422 447.987 95.566 435.831 95.566V125.895C431.237 125.895 427.515 122.173 427.515 117.578H457.844ZM332.877 344.57C358.559 313.363 379.243 278.044 394.392 239.617L366.176 228.494C352.161 264.046 333.074 296.602 309.458 325.298L332.877 344.57ZM394.392 239.617C408.398 204.09 414.993 172.278 418.075 151.767L388.083 147.261C385.248 166.127 379.14 195.612 366.176 228.494L394.392 239.617ZM418.074 151.772C419.703 140.959 413.143 130.582 402.663 127.425L393.914 156.464C389.948 155.27 387.468 151.344 388.083 147.255L418.074 151.772ZM402.676 127.429C378.227 120.04 358.648 103.711 345.955 79.5325L319.102 93.63C335.383 124.643 361.28 146.602 393.901 156.461L402.676 127.429ZM345.957 79.536C341.39 70.8323 337.713 61.0993 335.086 50.5779L305.66 57.9253C308.829 70.617 313.333 82.6341 319.1 93.6264L345.957 79.536ZM335.085 50.5737C333.165 42.896 327.264 36.8147 319.596 34.6964L311.52 63.9306C308.614 63.1278 306.385 60.8238 305.661 57.9295L335.085 50.5737ZM319.609 34.7002C287.648 25.8394 254.585 21.3501 221.341 21.3501V51.6791C251.855 51.6791 282.192 55.7998 311.507 63.9268L319.609 34.7002ZM221.341 21.3501C188.1 21.3501 155.041 25.8394 123.08 34.6963L131.18 63.9237C160.495 55.7998 190.83 51.6791 221.341 51.6791V21.3501ZM123.087 34.6944C115.437 36.8106 109.517 42.8856 107.602 50.5905L137.035 57.9056C136.309 60.8272 134.068 63.1248 131.173 63.9256L123.087 34.6944ZM107.606 50.5733C105.003 60.9966 101.354 70.674 96.8158 79.3555L123.694 93.406C129.419 82.4548 133.888 70.5088 137.031 57.9228L107.606 50.5733ZM96.816 79.3553C84.1135 103.654 64.4884 120.043 39.9612 127.44L48.7187 156.477C81.4507 146.605 107.408 124.559 123.694 93.4062L96.816 79.3553ZM39.9595 127.441C29.4548 130.61 22.9111 141.018 24.5578 151.835L54.5413 147.27C55.161 151.341 52.6973 155.277 48.7204 156.477L39.9595 127.441ZM24.5598 151.848C27.6077 171.752 33.9969 202.589 47.1894 236.8L75.4872 225.887C63.2789 194.229 57.351 165.619 54.5393 147.257L24.5598 151.848ZM47.1895 236.8C62.1909 275.699 82.8374 311.466 108.58 343.075L132.097 323.923C108.424 294.855 89.3686 261.882 75.4871 225.887L47.1895 236.8ZM108.58 343.076C136.483 377.336 170.588 406.836 209.878 430.801L225.671 404.908C189.18 382.651 157.725 355.391 132.097 323.923L108.58 343.076ZM209.868 430.795C213.391 432.947 217.37 434.021 221.341 434.021V403.693C222.835 403.693 224.345 404.099 225.68 404.914L209.868 430.795ZM221.341 434.021C225.312 434.021 229.29 432.945 232.809 430.795L216.998 404.914C218.329 404.101 219.838 403.693 221.341 403.693V434.021ZM232.8 430.801C271.516 407.187 305.213 378.189 332.877 344.57L309.458 325.299C284.049 356.177 252.967 382.975 217.007 404.908L232.8 430.801ZM229.373 391.103C195.669 370.054 166.554 344.546 142.715 315.277L119.199 334.431C145.24 366.403 176.909 394.095 213.308 416.828L229.373 391.103ZM142.715 315.278C119.954 287.33 101.627 255.61 88.2651 220.96L59.9672 231.872C74.4474 269.423 94.3655 303.938 119.198 334.43L142.715 315.278ZM88.2648 220.959C77.6535 193.445 71.9633 168.317 68.9623 150.656L39.0619 155.736C42.3144 174.878 48.463 202.043 59.9675 231.873L88.2648 220.959ZM59.0731 167.491C92.425 155.683 118.883 132.168 135.828 99.7505L108.95 85.701C95.3658 111.689 74.7084 129.782 48.9511 138.901L59.0731 167.491ZM135.828 99.7513C141.401 89.0902 145.876 77.5807 149.198 65.4995L119.954 57.4591C117.17 67.5853 113.464 77.0661 108.95 85.7001L135.828 99.7513ZM138.456 76.1391C165.454 68.994 193.321 65.3713 221.341 65.3713V35.0424C190.708 35.0424 160.233 39.0027 130.696 46.8196L138.456 76.1391ZM221.341 65.3713C249.366 65.3713 277.233 68.9972 304.236 76.1427L311.995 46.823C282.457 39.0065 251.981 35.0424 221.341 35.0424V65.3713ZM293.493 65.4989C296.841 77.6889 301.354 89.2788 306.982 99.9966L333.835 85.8979C329.283 77.2293 325.546 67.6881 322.739 57.4668L293.493 65.4989ZM306.981 99.9961C323.925 132.27 350.324 155.692 383.567 167.475L393.7 138.889C368.024 129.788 347.413 111.763 333.835 85.8985L306.981 99.9961ZM373.678 150.675C370.634 168.829 364.735 194.809 353.437 223.476L381.653 234.597C393.898 203.529 400.281 175.421 403.59 155.689L373.678 150.675ZM353.437 223.475C339.949 257.688 321.586 289.009 298.885 316.598L322.305 335.868C347.072 305.768 367.032 271.684 381.653 234.598L353.437 223.475ZM298.887 316.596C275.259 345.304 246.506 370.368 213.307 391.104L229.374 416.827C265.224 394.435 296.495 367.228 322.304 335.87L298.887 316.596ZM298.472 124.169C293.986 114.925 283.714 110.039 273.74 112.332L280.535 141.89C276.772 142.755 272.887 140.915 271.187 137.411L298.472 124.169ZM273.743 112.331C263.737 114.629 256.662 123.534 256.662 133.783H286.991C286.991 137.651 284.319 141.021 280.531 141.891L273.743 112.331ZM256.662 133.783C256.662 154.213 251.719 170.077 246.924 180.677L274.557 193.177C280.82 179.333 286.991 159.216 286.991 133.783H256.662ZM275.782 185.002C272.306 157.845 261.883 131.523 245.296 107.712L220.41 125.048C234.401 145.131 242.886 166.875 245.699 188.852L275.782 185.002ZM245.295 107.711C228.972 84.2837 212.3 71.1957 210.972 70.1634L192.361 94.1106C192.362 94.1114 192.574 94.2756 192.973 94.6022C193.377 94.9325 193.978 95.433 194.747 96.0999C196.286 97.4349 198.493 99.4318 201.141 102.061C206.449 107.332 213.46 115.074 220.411 125.049L245.295 107.711ZM210.941 70.1393C204.06 64.8206 194.693 64.0532 187.038 68.1805L201.431 94.8766C198.538 96.4363 194.995 96.1473 192.392 94.1347L210.941 70.1393ZM187.038 68.1805C179.394 72.3018 174.876 80.5395 175.533 89.2154L205.775 86.9255C206.024 90.2131 204.313 93.3228 201.431 94.8766L187.038 68.1805ZM175.533 89.2137C177.088 109.786 165.184 128.96 149.454 152.918L174.806 169.564C189.106 147.785 208.251 119.668 205.775 86.9272L175.533 89.2137ZM149.454 152.919C141.353 165.257 131.863 179.605 125.845 194.577L153.986 205.888C158.667 194.242 166.327 182.479 174.807 169.564L149.454 152.919ZM125.845 194.579C121.313 205.857 126.78 218.675 138.056 223.21L149.373 195.072C153.635 196.786 155.698 201.627 153.987 205.886L125.845 194.579ZM138.068 223.215C149.335 227.736 162.155 222.281 166.691 210.993L138.549 199.685C140.263 195.418 145.107 193.361 149.361 195.067L138.068 223.215ZM166.689 210.997C170.86 200.627 177.754 190.022 186.252 177.076L160.898 160.432C152.823 172.732 144.066 185.966 138.55 199.681L166.689 210.997ZM186.251 177.077C199.314 157.182 215.399 133.172 218.961 104.693L188.867 100.929C186.33 121.211 174.749 139.337 160.899 160.431L186.251 177.077ZM193.044 113.385C208.393 129.163 234.603 163.203 232.976 209.203L263.286 210.275C265.346 152.027 232.355 110.3 214.784 92.2369L193.044 113.385ZM232.976 209.206C232.648 218.525 238.232 227.048 246.919 230.464L258.018 202.239C261.302 203.53 263.411 206.75 263.287 210.273L232.976 209.206ZM246.919 230.464C255.598 233.877 265.492 231.451 271.605 224.399L248.687 204.534C251.001 201.864 254.74 200.95 258.018 202.239L246.919 230.464ZM271.593 224.413C273.493 222.226 290.313 202.045 297.48 166.443L267.747 160.457C261.943 189.289 248.431 204.829 248.699 204.52L271.593 224.413ZM268.136 167.962C272.771 182.835 277.194 202.217 277.311 221.902C277.428 241.578 273.252 260.452 261.874 275.691L286.176 293.836C302.777 271.603 307.78 245.496 307.639 221.722C307.499 197.956 302.227 175.417 297.091 158.938L268.136 167.962ZM261.874 275.69C256.059 283.477 245.262 289.998 231.535 293.064C217.949 296.099 203.187 295.336 190.88 290.478L179.743 318.688C198.377 326.044 219.398 326.852 238.147 322.663C256.755 318.507 274.844 309.01 286.175 293.837L261.874 275.69ZM190.88 290.478C184.272 287.869 176.125 283.114 170.146 274.657C164.369 266.485 159.545 253.356 161.937 231.816L131.794 228.468C128.7 256.324 134.742 277.115 145.381 292.165C155.819 306.93 169.638 314.698 179.743 318.688L190.88 290.478ZM161.937 231.821C163.283 219.739 154.574 208.846 142.48 207.511L139.152 237.657C134.578 237.152 131.285 233.033 131.794 228.463L161.937 231.821ZM142.48 207.511C130.42 206.18 119.522 214.861 118.185 226.964L148.331 230.295C147.823 234.886 143.693 238.158 139.152 237.657L142.48 207.511ZM118.186 226.955C115.55 250.675 118.881 272.615 128.609 290.961C138.415 309.453 154.229 323.335 174.717 331.423L185.854 303.213C171.712 297.63 161.641 288.514 155.404 276.752C149.089 264.845 146.221 249.276 148.329 230.305L118.186 226.955ZM174.715 331.422C187.719 336.559 201.61 338.927 215.258 338.923L215.249 308.594C205.057 308.597 194.989 306.821 185.856 303.214L174.715 331.422ZM215.253 338.923C246.436 338.923 278.95 326.401 297.148 302.032L272.848 283.885C261.812 298.662 239.557 308.594 215.253 308.594V338.923ZM297.15 302.03C320.075 271.32 326.195 230.094 317.657 184.585L287.848 190.177C295.356 230.197 289.194 261.987 272.846 283.887L297.15 302.03ZM317.657 184.585C311.349 150.948 299.229 125.727 298.469 124.162L271.19 137.417C271.4 137.85 282.248 160.315 287.848 190.176L317.657 184.585Z" fill="black" mask="url(#path-1-inside-1_125_14)"/>
<path d="M783.669 103.519V116.841H729.12V159.148H773.407V172.47H729.12V229H712.737V103.519H783.669ZM875.648 103.519V229H859.265V103.519H875.648ZM1025.45 229L995.565 177.691H975.762V229H959.379V103.519H999.886C1009.37 103.519 1017.35 105.139 1023.83 108.379C1030.43 111.62 1035.35 116.001 1038.59 121.522C1041.83 127.043 1043.45 133.344 1043.45 140.425C1043.45 149.066 1040.93 156.688 1035.89 163.289C1030.97 169.89 1023.53 174.271 1013.57 176.431L1045.07 229H1025.45ZM975.762 164.549H999.886C1008.77 164.549 1015.43 162.389 1019.87 158.068C1024.31 153.627 1026.53 147.746 1026.53 140.425C1026.53 132.984 1024.31 127.223 1019.87 123.142C1015.55 119.061 1008.89 117.021 999.886 117.021H975.762V164.549ZM1141.1 116.841V158.788H1186.83V172.29H1141.1V215.498H1192.23V229H1124.72V103.338H1192.23V116.841H1141.1ZM1335.66 164.369C1340.22 165.089 1344.36 166.949 1348.08 169.95C1351.92 172.95 1354.92 176.671 1357.08 181.112C1359.36 185.553 1360.5 190.293 1360.5 195.334C1360.5 201.695 1358.88 207.456 1355.64 212.617C1352.4 217.658 1347.66 221.679 1341.42 224.679C1335.3 227.56 1328.04 229 1319.64 229H1272.83V103.519H1317.84C1326.36 103.519 1333.62 104.959 1339.62 107.839C1345.62 110.6 1350.12 114.38 1353.12 119.181C1356.12 123.982 1357.62 129.383 1357.62 135.384C1357.62 142.825 1355.58 149.006 1351.5 153.927C1347.54 158.728 1342.26 162.209 1335.66 164.369ZM1289.21 157.708H1316.76C1324.44 157.708 1330.38 155.907 1334.58 152.307C1338.78 148.706 1340.88 143.725 1340.88 137.364C1340.88 131.003 1338.78 126.022 1334.58 122.422C1330.38 118.821 1324.32 117.021 1316.4 117.021H1289.21V157.708ZM1318.2 215.498C1326.36 215.498 1332.72 213.577 1337.28 209.737C1341.84 205.896 1344.12 200.555 1344.12 193.714C1344.12 186.753 1341.72 181.292 1336.92 177.331C1332.12 173.25 1325.7 171.21 1317.66 171.21H1289.21V215.498H1318.2ZM1455.43 215.678H1499.36V229H1439.05V103.519H1455.43V215.678ZM1646.74 201.095H1592.01L1581.93 229H1564.65L1610.01 104.239H1628.92L1674.1 229H1656.82L1646.74 201.095ZM1642.06 187.773L1619.38 124.402L1596.69 187.773H1642.06ZM1848.34 229H1831.96L1766.07 129.083V229H1749.69V103.338H1766.07L1831.96 203.076V103.338H1848.34V229ZM2000.13 229L1948.46 171.75V229H1932.08V103.519H1948.46V161.668L2000.31 103.519H2021.02L1964.13 166.349L2021.56 229H2000.13ZM2112.04 116.841V158.788H2157.77V172.29H2112.04V215.498H2163.17V229H2095.66V103.338H2163.17V116.841H2112.04ZM2321.01 103.519V116.841H2286.8V229H2270.42V116.841H2236.03V103.519H2321.01ZM2402.2 230.08C2399.08 230.08 2396.44 229 2394.28 226.84C2392.12 224.679 2391.04 222.039 2391.04 218.918C2391.04 215.798 2392.12 213.157 2394.28 210.997C2396.44 208.837 2399.08 207.756 2402.2 207.756C2405.2 207.756 2407.72 208.837 2409.76 210.997C2411.92 213.157 2413 215.798 2413 218.918C2413 222.039 2411.92 224.679 2409.76 226.84C2407.72 229 2405.2 230.08 2402.2 230.08ZM2484.47 166.169C2484.47 153.927 2487.23 142.945 2492.75 133.224C2498.27 123.382 2505.77 115.701 2515.25 110.18C2524.86 104.659 2535.48 101.898 2547.12 101.898C2560.8 101.898 2572.74 105.199 2582.95 111.8C2593.15 118.401 2600.59 127.763 2605.27 139.885H2585.65C2582.17 132.323 2577.13 126.502 2570.52 122.422C2564.04 118.341 2556.24 116.301 2547.12 116.301C2538.36 116.301 2530.5 118.341 2523.54 122.422C2516.58 126.502 2511.11 132.323 2507.15 139.885C2503.19 147.326 2501.21 156.088 2501.21 166.169C2501.21 176.131 2503.19 184.892 2507.15 192.454C2511.11 199.895 2516.58 205.656 2523.54 209.737C2530.5 213.817 2538.36 215.858 2547.12 215.858C2556.24 215.858 2564.04 213.877 2570.52 209.917C2577.13 205.836 2582.17 200.015 2585.65 192.454H2605.27C2600.59 204.456 2593.15 213.757 2582.95 220.359C2572.74 226.84 2560.8 230.08 2547.12 230.08C2535.48 230.08 2524.86 227.38 2515.25 221.979C2505.77 216.458 2498.27 208.837 2492.75 199.115C2487.23 189.393 2484.47 178.411 2484.47 166.169ZM2742.36 230.26C2730.71 230.26 2720.09 227.56 2710.49 222.159C2700.89 216.638 2693.27 209.017 2687.63 199.295C2682.11 189.453 2679.35 178.411 2679.35 166.169C2679.35 153.927 2682.11 142.945 2687.63 133.224C2693.27 123.382 2700.89 115.761 2710.49 110.36C2720.09 104.839 2730.71 102.078 2742.36 102.078C2754.12 102.078 2764.8 104.839 2774.4 110.36C2784 115.761 2791.57 123.322 2797.09 133.044C2802.61 142.765 2805.37 153.807 2805.37 166.169C2805.37 178.531 2802.61 189.573 2797.09 199.295C2791.57 209.017 2784 216.638 2774.4 222.159C2764.8 227.56 2754.12 230.26 2742.36 230.26ZM2742.36 216.038C2751.12 216.038 2758.98 213.997 2765.94 209.917C2773.02 205.836 2778.54 200.015 2782.5 192.454C2786.58 184.892 2788.62 176.131 2788.62 166.169C2788.62 156.088 2786.58 147.326 2782.5 139.885C2778.54 132.323 2773.08 126.502 2766.12 122.422C2759.16 118.341 2751.24 116.301 2742.36 116.301C2733.48 116.301 2725.55 118.341 2718.59 122.422C2711.63 126.502 2706.11 132.323 2702.03 139.885C2698.07 147.326 2696.09 156.088 2696.09 166.169C2696.09 176.131 2698.07 184.892 2702.03 192.454C2706.11 200.015 2711.63 205.836 2718.59 209.917C2725.67 213.997 2733.6 216.038 2742.36 216.038ZM3010.09 104.419V229H2993.7V136.104L2952.3 229H2940.77L2899.19 135.924V229H2882.8V104.419H2900.45L2946.54 207.396L2992.62 104.419H3010.09Z" fill="black"/>
<path d="M746.422 374.061H716.941L711.51 389.093H702.2L726.639 321.887H736.822L761.163 389.093H751.853L746.422 374.061ZM743.901 366.885L731.682 332.748L719.462 366.885H743.901ZM853.955 321.984V389.093H845.13V339.052L822.825 389.093H816.618L794.216 338.955V389.093H785.391V321.984H794.895L819.721 377.455L844.548 321.984H853.955ZM891.323 328.675V351.271H915.956V358.545H891.323V381.819H918.865V389.093H882.498V321.402H918.865V328.675H891.323ZM981.386 389.093L965.288 361.454H954.62V389.093H945.795V321.499H967.616C972.723 321.499 977.022 322.372 980.514 324.117C984.07 325.863 986.72 328.223 988.466 331.197C990.211 334.171 991.084 337.565 991.084 341.379C991.084 346.034 989.727 350.14 987.011 353.696C984.36 357.252 980.352 359.611 974.986 360.775L991.957 389.093H981.386ZM954.62 354.375H967.616C972.4 354.375 975.988 353.211 978.38 350.883C980.772 348.491 981.968 345.323 981.968 341.379C981.968 337.371 980.772 334.268 978.38 332.07C976.053 329.871 972.464 328.772 967.616 328.772H954.62V354.375ZM1027.2 321.499V389.093H1018.37V321.499H1027.2ZM1052.52 355.247C1052.52 348.653 1054.01 342.737 1056.98 337.5C1059.95 332.199 1064 328.061 1069.1 325.087C1074.27 322.113 1080 320.626 1086.27 320.626C1093.64 320.626 1100.07 322.404 1105.57 325.96C1111.06 329.516 1115.07 334.559 1117.59 341.089H1107.02C1105.15 337.015 1102.43 333.88 1098.87 331.682C1095.38 329.483 1091.18 328.384 1086.27 328.384C1081.55 328.384 1077.31 329.483 1073.56 331.682C1069.81 333.88 1066.87 337.015 1064.74 341.089C1062.61 345.097 1061.54 349.817 1061.54 355.247C1061.54 360.613 1062.61 365.333 1064.74 369.406C1066.87 373.415 1069.81 376.518 1073.56 378.716C1077.31 380.914 1081.55 382.013 1086.27 382.013C1091.18 382.013 1095.38 380.947 1098.87 378.813C1102.43 376.615 1105.15 373.479 1107.02 369.406H1117.59C1115.07 375.871 1111.06 380.882 1105.57 384.438C1100.07 387.929 1093.64 389.675 1086.27 389.675C1080 389.675 1074.27 388.22 1069.1 385.311C1064 382.337 1059.95 378.231 1056.98 372.994C1054.01 367.758 1052.52 361.842 1052.52 355.247ZM1184.26 374.061H1154.78L1149.35 389.093H1140.04L1164.48 321.887H1174.66L1199 389.093H1189.69L1184.26 374.061ZM1181.74 366.885L1169.52 332.748L1157.3 366.885H1181.74ZM1238.07 320.917L1217.41 331.973V325.378L1238.07 313.256V320.917ZM1282.2 389.772C1277.74 389.772 1273.73 388.996 1270.17 387.444C1266.68 385.828 1263.93 383.63 1261.93 380.85C1259.93 378.005 1258.89 374.74 1258.83 371.055H1268.23C1268.56 374.223 1269.85 376.906 1272.11 379.104C1274.44 381.238 1277.8 382.304 1282.2 382.304C1286.4 382.304 1289.7 381.27 1292.09 379.201C1294.55 377.067 1295.78 374.352 1295.78 371.055C1295.78 368.469 1295.06 366.368 1293.64 364.751C1292.22 363.135 1290.44 361.907 1288.31 361.066C1286.17 360.226 1283.3 359.32 1279.68 358.351C1275.22 357.187 1271.63 356.023 1268.91 354.859C1266.26 353.696 1263.97 351.885 1262.03 349.429C1260.15 346.907 1259.21 343.545 1259.21 339.343C1259.21 335.658 1260.15 332.393 1262.03 329.548C1263.9 326.703 1266.52 324.505 1269.88 322.954C1273.31 321.402 1277.22 320.626 1281.62 320.626C1287.95 320.626 1293.13 322.21 1297.13 325.378C1301.21 328.546 1303.5 332.748 1304.02 337.985H1294.32C1294 335.399 1292.64 333.136 1290.25 331.197C1287.86 329.192 1284.69 328.19 1280.74 328.19C1277.06 328.19 1274.05 329.16 1271.73 331.1C1269.4 332.975 1268.23 335.625 1268.23 339.052C1268.23 341.509 1268.91 343.513 1270.27 345.065C1271.69 346.616 1273.41 347.812 1275.41 348.653C1277.48 349.429 1280.36 350.334 1284.04 351.368C1288.5 352.597 1292.09 353.825 1294.81 355.053C1297.52 356.217 1299.85 358.06 1301.79 360.581C1303.73 363.038 1304.7 366.4 1304.7 370.667C1304.7 373.964 1303.82 377.067 1302.08 379.977C1300.33 382.886 1297.75 385.246 1294.32 387.056C1290.89 388.866 1286.85 389.772 1282.2 389.772ZM1424.23 344.483L1420.54 361.939H1433.92V369.697H1418.89L1414.72 389.093H1406.28L1410.45 369.697H1390.09L1385.92 389.093H1377.48L1381.65 369.697H1366.43V361.939H1383.3L1386.99 344.483H1371.95V336.724H1388.63L1392.8 317.329H1401.24L1397.07 336.724H1417.44L1421.61 317.329H1430.04L1425.87 336.724H1439.35V344.483H1424.23ZM1415.79 344.483H1395.42L1391.74 361.939H1412.1L1415.79 344.483ZM1461.93 327.027V318.977H1480.17V389.093H1471.24V327.027H1461.93ZM1558.61 328.675V351.271H1583.25V358.545H1558.61V381.819H1586.16V389.093H1549.79V321.402H1586.16V328.675H1558.61ZM1681.65 321.984V389.093H1672.82V339.052L1650.52 389.093H1644.31L1621.91 338.955V389.093H1613.09V321.984H1622.59L1647.42 377.455L1672.24 321.984H1681.65ZM1719.02 328.675V351.271H1743.65V358.545H1719.02V381.819H1746.56V389.093H1710.19V321.402H1746.56V328.675H1719.02ZM1809.08 389.093L1792.98 361.454H1782.32V389.093H1773.49V321.499H1795.31C1800.42 321.499 1804.72 322.372 1808.21 324.117C1811.76 325.863 1814.42 328.223 1816.16 331.197C1817.91 334.171 1818.78 337.565 1818.78 341.379C1818.78 346.034 1817.42 350.14 1814.71 353.696C1812.06 357.252 1808.05 359.611 1802.68 360.775L1819.65 389.093H1809.08ZM1782.32 354.375H1795.31C1800.09 354.375 1803.68 353.211 1806.07 350.883C1808.47 348.491 1809.66 345.323 1809.66 341.379C1809.66 337.371 1808.47 334.268 1806.07 332.07C1803.75 329.871 1800.16 328.772 1795.31 328.772H1782.32V354.375ZM1897.27 341.089C1895.4 337.145 1892.68 334.106 1889.13 331.973C1885.57 329.774 1881.43 328.675 1876.71 328.675C1871.99 328.675 1867.73 329.774 1863.91 331.973C1860.16 334.106 1857.19 337.209 1854.99 341.282C1852.86 345.291 1851.79 349.946 1851.79 355.247C1851.79 360.549 1852.86 365.204 1854.99 369.212C1857.19 373.221 1860.16 376.324 1863.91 378.522C1867.73 380.656 1871.99 381.722 1876.71 381.722C1883.31 381.722 1888.74 379.751 1893.01 375.807C1897.27 371.863 1899.76 366.529 1900.47 359.805H1873.51V352.629H1909.88V359.417C1909.36 364.977 1907.62 370.085 1904.64 374.74C1901.67 379.33 1897.76 382.983 1892.91 385.699C1888.06 388.349 1882.66 389.675 1876.71 389.675C1870.44 389.675 1864.72 388.22 1859.55 385.311C1854.38 382.337 1850.27 378.231 1847.23 372.994C1844.26 367.758 1842.77 361.842 1842.77 355.247C1842.77 348.653 1844.26 342.737 1847.23 337.5C1850.27 332.199 1854.38 328.093 1859.55 325.184C1864.72 322.21 1870.44 320.723 1876.71 320.723C1883.89 320.723 1890.23 322.501 1895.72 326.057C1901.28 329.613 1905.32 334.623 1907.84 341.089H1897.27ZM1943.95 328.675V351.271H1968.58V358.545H1943.95V381.819H1971.49V389.093H1935.13V321.402H1971.49V328.675H1943.95ZM2051.57 389.093H2042.74L2007.25 335.27V389.093H1998.42V321.402H2007.25L2042.74 375.128V321.402H2051.57V389.093ZM2076.89 355.247C2076.89 348.653 2078.38 342.737 2081.35 337.5C2084.33 332.199 2088.37 328.061 2093.47 325.087C2098.65 322.113 2104.37 320.626 2110.64 320.626C2118.01 320.626 2124.44 322.404 2129.94 325.96C2135.43 329.516 2139.44 334.559 2141.96 341.089H2131.39C2129.52 337.015 2126.8 333.88 2123.25 331.682C2119.76 329.483 2115.55 328.384 2110.64 328.384C2105.92 328.384 2101.68 329.483 2097.93 331.682C2094.19 333.88 2091.24 337.015 2089.11 341.089C2086.98 345.097 2085.91 349.817 2085.91 355.247C2085.91 360.613 2086.98 365.333 2089.11 369.406C2091.24 373.415 2094.19 376.518 2097.93 378.716C2101.68 380.914 2105.92 382.013 2110.64 382.013C2115.55 382.013 2119.76 380.947 2123.25 378.813C2126.8 376.615 2129.52 373.479 2131.39 369.406H2141.96C2139.44 375.871 2135.43 380.882 2129.94 384.438C2124.44 387.929 2118.01 389.675 2110.64 389.675C2104.37 389.675 2098.65 388.22 2093.47 385.311C2088.37 382.337 2084.33 378.231 2081.35 372.994C2078.38 367.758 2076.89 361.842 2076.89 355.247ZM2216 321.499L2193.99 363.587V389.093H2185.16V363.587L2163.05 321.499H2172.85L2189.53 355.732L2206.21 321.499H2216ZM2316.53 321.499V328.675H2287.14V351.465H2311V358.642H2287.14V389.093H2278.32V321.499H2316.53ZM2349.59 321.499V389.093H2340.76V321.499H2349.59ZM2413.8 389.093L2397.7 361.454H2387.03V389.093H2378.21V321.499H2400.03C2405.13 321.499 2409.43 322.372 2412.93 324.117C2416.48 325.863 2419.13 328.223 2420.88 331.197C2422.62 334.171 2423.5 337.565 2423.5 341.379C2423.5 346.034 2422.14 350.14 2419.42 353.696C2416.77 357.252 2412.76 359.611 2407.4 360.775L2424.37 389.093H2413.8ZM2387.03 354.375H2400.03C2404.81 354.375 2408.4 353.211 2410.79 350.883C2413.18 348.491 2414.38 345.323 2414.38 341.379C2414.38 337.371 2413.18 334.268 2410.79 332.07C2408.46 329.871 2404.88 328.772 2400.03 328.772H2387.03V354.375ZM2459.61 328.675V351.271H2484.24V358.545H2459.61V381.819H2487.15V389.093H2450.79V321.402H2487.15V328.675H2459.61ZM2587.36 354.278C2589.82 354.665 2592.05 355.668 2594.05 357.284C2596.12 358.9 2597.74 360.904 2598.9 363.297C2600.13 365.689 2600.74 368.242 2600.74 370.958C2600.74 374.384 2599.87 377.488 2598.12 380.268C2596.38 382.983 2593.82 385.149 2590.46 386.765C2587.17 388.317 2583.25 389.093 2578.73 389.093H2553.51V321.499H2577.76C2582.35 321.499 2586.26 322.275 2589.49 323.826C2592.73 325.313 2595.15 327.35 2596.77 329.936C2598.38 332.522 2599.19 335.431 2599.19 338.664C2599.19 342.672 2598.09 346.002 2595.89 348.653C2593.76 351.239 2590.92 353.114 2587.36 354.278ZM2562.34 350.689H2577.18C2581.31 350.689 2584.51 349.72 2586.78 347.78C2589.04 345.84 2590.17 343.157 2590.17 339.731C2590.17 336.304 2589.04 333.621 2586.78 331.682C2584.51 329.742 2581.25 328.772 2576.98 328.772H2562.34V350.689ZM2577.95 381.819C2582.35 381.819 2585.78 380.785 2588.23 378.716C2590.69 376.647 2591.92 373.77 2591.92 370.085C2591.92 366.335 2590.62 363.394 2588.04 361.26C2585.45 359.062 2581.99 357.963 2577.66 357.963H2562.34V381.819H2577.95ZM2635.39 381.916H2659.05V389.093H2626.57V321.499H2635.39V381.916ZM2721.96 374.061H2692.48L2687.05 389.093H2677.74L2702.17 321.887H2712.36L2736.7 389.093H2727.39L2721.96 374.061ZM2719.44 366.885L2707.22 332.748L2695 366.885H2719.44ZM2814.07 389.093H2805.25L2769.75 335.27V389.093H2760.93V321.402H2769.75L2805.25 375.128V321.402H2814.07V389.093ZM2879.35 389.093L2851.52 358.254V389.093H2842.69V321.499H2851.52V352.823L2879.45 321.499H2890.6L2859.95 355.344L2890.89 389.093H2879.35ZM2923.15 328.675V351.271H2947.78V358.545H2923.15V381.819H2950.69V389.093H2914.32V321.402H2950.69V328.675H2923.15ZM3019.22 321.499V328.675H3000.8V389.093H2991.97V328.675H2973.45V321.499H3019.22Z" fill="black"/>
</svg>
